<?xml version="1.0" encoding="UTF-8"?>
<svg xmlns="http://www.w3.org/2000/svg" xmlns:xlink="http://www.w3.org/1999/xlink" width="43px" height="43px" viewBox="0 0 43 43" version="1.1">
<g id="surface1">
<path style=" stroke:none;fill-rule:nonzero;fill:rgb(0%,0%,0%);fill-opacity:1;" d="M 18.8125 1.71875 C 17.257812 1.859375 14.984375 2.417969 13.496094 3.023438 C 7.734375 5.382812 3.5 10.21875 1.949219 16.222656 C 1.492188 17.976562 1.386719 18.878906 1.386719 21.015625 C 1.386719 22.671875 1.410156 23.097656 1.554688 23.925781 C 1.875 25.792969 2.351562 27.414062 2.671875 27.710938 C 3.203125 28.21875 4.136719 28.070312 4.433594 27.433594 C 4.582031 27.121094 4.582031 26.761719 4.433594 26.34375 C 4.375 26.164062 4.21875 25.613281 4.097656 25.121094 C 3.136719 21.238281 3.5625 17.15625 5.300781 13.601562 C 5.898438 12.378906 6.242188 11.800781 7.0625 10.710938 C 9.726562 7.136719 13.675781 4.777344 18.191406 4.070312 C 18.597656 4 19.476562 3.925781 20.15625 3.90625 C 25.71875 3.703125 30.945312 6.195312 34.339844 10.660156 C 34.667969 11.085938 34.9375 11.480469 34.929688 11.527344 C 34.929688 11.570312 34.4375 12.011719 33.832031 12.511719 C 33.226562 13.003906 30.726562 15.085938 28.269531 17.125 C 25.816406 19.164062 23.761719 20.859375 23.703125 20.871094 C 23.621094 20.902344 23.628906 20.8125 23.738281 20.441406 C 24.320312 18.4375 25.308594 14.570312 25.308594 14.273438 C 25.308594 13.832031 25.121094 13.453125 24.792969 13.234375 C 24.328125 12.921875 23.351562 13.027344 22.730469 13.445312 C 22.582031 13.542969 20.992188 15.3125 19.179688 17.371094 C 17.371094 19.441406 15.863281 21.125 15.828125 21.125 C 15.796875 21.125 15.746094 21.066406 15.714844 20.992188 C 14.976562 19.050781 13.011719 14.078125 12.914062 13.886719 C 12.542969 13.152344 11.632812 12.847656 10.863281 13.207031 C 10.265625 13.480469 10.09375 13.8125 9.628906 15.527344 C 9.457031 16.164062 9.109375 17.476562 8.847656 18.4375 C 8.585938 19.402344 8.054688 21.386719 7.667969 22.84375 C 7.269531 24.300781 6.710938 26.382812 6.421875 27.472656 C 5.113281 32.332031 5.136719 32.226562 5.292969 32.644531 C 5.488281 33.144531 7.308594 35.078125 8.53125 36.066406 C 11.324219 38.328125 14.570312 39.714844 18.199219 40.214844 C 19.269531 40.355469 21.878906 40.378906 22.957031 40.246094 C 24.605469 40.042969 26.261719 39.632812 27.695312 39.066406 C 34.242188 36.492188 38.828125 30.742188 39.871094 23.792969 C 39.992188 22.984375 40.035156 22.359375 40.042969 21.164062 C 40.050781 19.433594 39.960938 18.476562 39.640625 16.921875 C 39.34375 15.476562 39.101562 15.15625 38.320312 15.15625 C 37.414062 15.15625 37.058594 15.847656 37.363281 17.011719 C 37.421875 17.246094 37.542969 17.871094 37.632812 18.402344 C 37.871094 19.789062 37.871094 22.230469 37.632812 23.628906 C 37.019531 27.261719 35.511719 30.277344 33.011719 32.863281 C 30.203125 35.765625 27.097656 37.332031 22.804688 38.011719 C 21.820312 38.171875 19.335938 38.132812 18.179688 37.9375 C 15.617188 37.519531 13.355469 36.65625 11.316406 35.3125 C 10.167969 34.558594 8.726562 33.332031 8.167969 32.652344 L 7.898438 32.332031 L 8.121094 31.488281 C 8.242188 31.027344 8.667969 29.4375 9.070312 27.957031 C 9.464844 26.480469 9.90625 24.851562 10.039062 24.335938 C 10.832031 21.34375 11.59375 18.535156 11.636719 18.445312 C 11.675781 18.386719 12.109375 19.378906 12.757812 21.023438 C 13.347656 22.5 13.90625 23.828125 14.003906 23.984375 C 14.242188 24.351562 14.625 24.515625 15.09375 24.464844 C 15.828125 24.375 15.496094 24.6875 20.605469 19.222656 C 21.335938 18.445312 21.476562 18.328125 21.410156 18.558594 C 21.386719 18.640625 21.214844 19.269531 21.03125 19.96875 C 19.582031 25.382812 19.238281 26.664062 19.140625 27.023438 C 18.925781 27.84375 19.042969 28.429688 19.492188 28.75 C 19.699219 28.890625 19.835938 28.929688 20.238281 28.929688 C 20.648438 28.929688 20.777344 28.898438 21.042969 28.71875 C 21.558594 28.375 21.714844 28.03125 22.171875 26.277344 L 22.582031 24.6875 L 24.480469 23.164062 C 25.523438 22.328125 26.40625 21.671875 26.433594 21.703125 C 26.464844 21.730469 26.695312 22.195312 26.933594 22.730469 C 29.011719 27.261719 29.449219 28.203125 29.570312 28.382812 C 29.949219 28.914062 30.824219 29.113281 31.429688 28.800781 C 31.914062 28.554688 32.101562 28.234375 32.101562 27.667969 C 32.101562 27.121094 32.136719 27.226562 30.152344 23.074219 L 28.710938 20.058594 L 28.972656 19.84375 C 29.1875 19.65625 32.625 16.828125 36.28125 13.832031 C 37.910156 12.496094 38.003906 12.207031 37.273438 10.972656 C 34.503906 6.316406 29.777344 3.023438 24.375 1.984375 C 22.671875 1.664062 20.589844 1.558594 18.8125 1.71875 Z M 18.8125 1.71875 "/>
</g>
</svg>
